<?xml version="1.0" standalone="no"?><!DOCTYPE svg PUBLIC "-//W3C//DTD SVG 1.1//EN" "http://www.w3.org/Graphics/SVG/1.1/DTD/svg11.dtd"><svg t="1643717272465" class="icon" viewBox="0 0 1024 1024" version="1.1" xmlns="http://www.w3.org/2000/svg" p-id="7073" xmlns:xlink="http://www.w3.org/1999/xlink" width="16" height="16"><defs><style type="text/css"></style></defs><path d="M810.666667 170.666667a128 128 0 0 1 128 128v426.666666a128 128 0 0 1-128 128H213.333333a128 128 0 0 1-128-128V298.666667a128 128 0 0 1 128-128h597.333334z m42.666666 178.261333l-284.8 178.048a106.666667 106.666667 0 0 1-106.026666 4.053333l-7.04-4.053333L170.666667 348.928V725.333333a42.666667 42.666667 0 0 0 37.674666 42.368L213.333333 768h597.333334a42.666667 42.666667 0 0 0 42.368-37.674667L853.333333 725.333333V348.928zM810.666667 256H213.333333a42.453333 42.453333 0 0 0-21.333333 5.674667l308.693333 192.938666a21.333333 21.333333 0 0 0 19.029334 1.792l3.584-1.792 308.650666-192.938666a42.410667 42.410667 0 0 0-16.298666-5.376L810.666667 256z" fill="#000000" fill-opacity=".87" p-id="7074"></path></svg>